<svg
    width="2em"
    height="3em"
    viewBox="0 0 1024 1024"
    xmlns="http://www.w3.org/2000/svg">
    <g transform="translate(-767, -1273) scale(2.5)">
        <g transform="matrix(20,0,0,20,-6362.62,-11307)">
            <path
                d="m 343.141,601.5 c -0.071,-1.09 -0.134,-2.091 -0.105,-2.957 0.028,-0.848 0.162,-1.566 0.416,-2.12 0.402,-0.877 1.116,-1.374 2.267,-1.427 1.454,-0.028 2.473,0.877 2.961,2.065 0.134,0.327 0.224,0.677 0.268,1.029 0.112,0.903 -0.049,1.815 -0.45,2.458 -0.518,0.801 -1.075,1.211 -1.977,1.351 -0.713,0.111 -1.658,0.049 -3.04,-0.059 -0.188,0 -0.34,-0.152 -0.34,-0.34 z m 0.703,-0.369 c 1.083,-0.087 1.848,-0.166 2.424,-0.341 0.503,-0.152 0.789,-0.423 1.028,-0.918 0.12,-0.239 0.16,-0.533 0.172,-0.841 0.017,-0.451 -0.084,-0.93 -0.264,-1.365 -0.26,-0.625 -0.719,-1.175 -1.485,-1.19 -0.747,-0.036 -1.13,0.375 -1.361,1.054 -0.311,0.908 -0.419,2.164 -0.514,3.601 z"
                style="color:#ff0000;fill:#ff0000;"
            />
        </g>
        <g transform="matrix(-20,0,0,-20,7376.61,12753)">
            <path
                d="m 343.141,601.5 c -0.071,-1.09 -0.134,-2.091 -0.105,-2.957 0.028,-0.848 0.162,-1.566 0.416,-2.12 0.402,-0.877 1.116,-1.374 2.267,-1.427 1.454,-0.028 2.473,0.877 2.961,2.065 0.134,0.327 0.224,0.677 0.268,1.029 0.112,0.903 -0.049,1.815 -0.45,2.458 -0.518,0.801 -1.075,1.211 -1.977,1.351 -0.713,0.111 -1.658,0.049 -3.04,-0.059 -0.188,0 -0.34,-0.152 -0.34,-0.34 z m 0.703,-0.369 c 1.083,-0.087 1.848,-0.166 2.424,-0.341 0.503,-0.152 0.789,-0.423 1.028,-0.918 0.12,-0.239 0.16,-0.533 0.172,-0.841 0.017,-0.451 -0.084,-0.93 -0.264,-1.365 -0.26,-0.625 -0.719,-1.175 -1.485,-1.19 -0.747,-0.036 -1.13,0.375 -1.361,1.054 -0.311,0.908 -0.419,2.164 -0.514,3.601 z"
                style="color:#ff0000;fill:#ff0000;"
            />
        </g>
    </g>
</svg>
